<?xml version="1.0" encoding="UTF-8"?>
<svg xmlns="http://www.w3.org/2000/svg" xmlns:xlink="http://www.w3.org/1999/xlink" width="76px" height="76px" viewBox="0 0 76 76" version="1.1">
<g id="surface1">
<path style=" stroke:none;fill-rule:nonzero;fill:rgb(0%,0%,0%);fill-opacity:1;" d="M 32.320312 1.519531 C 17.648438 4.328125 6.289062 14.839844 2.332031 29.242188 C 1.421875 32.589844 1.046875 41.28125 1.65625 44.828125 C 4.261719 59.773438 15.519531 71.671875 30.496094 75.289062 C 32.386719 75.761719 34.382812 75.898438 39.046875 75.898438 C 44.625 75.898438 45.402344 75.796875 48.480469 74.953125 C 61.125 71.4375 70.355469 62.679688 74.816406 49.933594 L 75.898438 46.824219 L 75.898438 30.257812 L 74.75 27.046875 C 72.921875 21.804688 71.03125 18.460938 67.648438 14.4375 C 62.511719 8.28125 56.222656 4.359375 48.007812 2.164062 C 43.882812 1.046875 36.410156 0.742188 32.320312 1.519531 Z M 47.667969 2.976562 C 60.855469 6.492188 71.097656 16.566406 74.34375 29.277344 C 77.757812 42.5625 73.800781 56.1875 63.828125 65.417969 C 45.574219 82.355469 16.195312 76.574219 5.578125 53.992188 C -0.675781 40.671875 1.722656 25.085938 11.800781 13.859375 C 16.835938 8.214844 25.019531 3.753906 32.792969 2.398438 C 35.871094 1.859375 44.726562 2.199219 47.667969 2.976562 Z M 47.667969 2.976562 "/>
<path style=" stroke:none;fill-rule:nonzero;fill:rgb(0%,0%,0%);fill-opacity:1;" d="M 35.328125 6.929688 C 35.195312 8.148438 34.992188 9.128906 34.855469 9.128906 C 34.753906 9.128906 34.28125 8.28125 33.839844 7.269531 C 32.761719 4.765625 31.980469 4.734375 32.285156 7.167969 C 32.589844 9.90625 32.828125 10.820312 33.132812 10.820312 C 33.265625 10.820312 33.335938 10.109375 33.234375 9.195312 C 33.097656 7.707031 33.132812 7.640625 33.640625 8.28125 C 33.941406 8.65625 34.246094 9.296875 34.382812 9.703125 C 34.652344 10.921875 35.5 10.648438 35.53125 9.363281 C 35.53125 8.789062 35.667969 7.980469 35.800781 7.640625 C 36.039062 7.03125 36.074219 7.03125 36.277344 7.808594 C 36.410156 8.25 36.511719 8.960938 36.511719 9.363281 C 36.511719 9.804688 36.679688 10.140625 36.851562 10.140625 C 37.289062 10.140625 37.289062 9.941406 36.816406 7.066406 C 36.308594 4.023438 35.632812 3.957031 35.328125 6.929688 Z M 35.328125 6.929688 "/>
<path style=" stroke:none;fill-rule:nonzero;fill:rgb(0%,0%,0%);fill-opacity:1;" d="M 39.859375 5.644531 C 39.757812 7.199219 39.996094 10.007812 40.265625 10.277344 C 40.703125 10.75 41.078125 10.242188 40.636719 9.738281 C 40.46875 9.5 40.367188 8.824219 40.433594 8.28125 C 40.773438 5.917969 40.703125 5.070312 40.230469 5.070312 C 40.0625 5.070312 39.859375 5.339844 39.859375 5.644531 Z M 39.859375 5.644531 "/>
<path style=" stroke:none;fill-rule:nonzero;fill:rgb(0%,0%,0%);fill-opacity:1;" d="M 38.203125 8.25 C 38.203125 9.296875 38.339844 10.140625 38.507812 10.140625 C 38.914062 10.140625 38.914062 6.828125 38.507812 6.558594 C 38.339844 6.457031 38.203125 7.234375 38.203125 8.25 Z M 38.203125 8.25 "/>
<path style=" stroke:none;fill-rule:nonzero;fill:rgb(0%,0%,0%);fill-opacity:1;" d="M 41.855469 6.625 C 41.683594 6.761719 41.582031 7.707031 41.617188 8.757812 C 41.617188 10.34375 41.683594 10.515625 41.957031 9.804688 C 42.328125 8.890625 42.226562 6.21875 41.855469 6.625 Z M 41.855469 6.625 "/>
<path style=" stroke:none;fill-rule:nonzero;fill:rgb(0%,0%,0%);fill-opacity:1;" d="M 44.050781 6.796875 C 43.273438 7.066406 42.765625 8.6875 43.105469 9.804688 C 43.207031 10.175781 43.679688 10.582031 44.152344 10.683594 C 44.59375 10.785156 44.964844 11.019531 44.964844 11.191406 C 44.964844 11.699219 43.949219 11.96875 43.511719 11.527344 C 43.039062 11.054688 42.597656 11.054688 42.597656 11.496094 C 42.597656 12 43.917969 12.578125 44.625 12.339844 C 45.269531 12.136719 45.675781 11.121094 46.113281 8.417969 C 46.28125 7.402344 46.214844 7.167969 45.574219 6.863281 C 45.132812 6.660156 44.492188 6.625 44.050781 6.796875 Z M 45.234375 8.824219 C 45.167969 9.703125 44.964844 9.972656 44.457031 9.972656 C 43.578125 9.972656 43.375 8.417969 44.152344 7.640625 C 44.898438 6.863281 45.371094 7.371094 45.234375 8.824219 Z M 45.234375 8.824219 "/>
<path style=" stroke:none;fill-rule:nonzero;fill:rgb(0%,0%,0%);fill-opacity:1;" d="M 47.769531 7.675781 C 46.992188 7.980469 47.296875 8.417969 48.277344 8.351562 C 48.886719 8.316406 49.191406 8.453125 49.191406 8.789062 C 49.191406 9.128906 48.921875 9.261719 48.378906 9.195312 C 47.398438 9.09375 46.65625 9.667969 46.65625 10.515625 C 46.65625 11.222656 46.824219 11.324219 48.210938 11.628906 C 49.257812 11.867188 49.292969 11.832031 49.699219 10.140625 C 50.238281 7.878906 49.527344 6.964844 47.769531 7.675781 Z M 49.019531 10.109375 C 49.019531 10.582031 48.074219 11.222656 47.667969 10.988281 C 46.992188 10.582031 47.332031 9.804688 48.175781 9.804688 C 48.648438 9.804688 49.019531 9.941406 49.019531 10.109375 Z M 49.019531 10.109375 "/>
<path style=" stroke:none;fill-rule:nonzero;fill:rgb(0%,0%,0%);fill-opacity:1;" d="M 51.726562 8.113281 C 51.457031 8.585938 51.21875 9.09375 51.183594 9.296875 C 51.117188 9.464844 50.914062 10.109375 50.679688 10.683594 C 50.441406 11.292969 50.375 12 50.542969 12.375 C 50.8125 12.980469 50.8125 12.980469 50.949219 12.339844 C 51.285156 10.515625 51.421875 10.140625 51.929688 9.667969 C 52.234375 9.363281 52.402344 8.722656 52.335938 8.214844 L 52.234375 7.269531 Z M 51.726562 8.113281 "/>
<path style=" stroke:none;fill-rule:nonzero;fill:rgb(0%,0%,0%);fill-opacity:1;" d="M 28.296875 8.179688 C 27.757812 8.585938 27.757812 8.722656 28.296875 10.378906 C 28.601562 11.359375 28.972656 12.171875 29.140625 12.171875 C 29.515625 12.171875 29.480469 12 29.007812 10.414062 C 28.703125 9.433594 28.703125 9.027344 29.007812 8.722656 C 29.851562 7.878906 29.3125 7.472656 28.296875 8.179688 Z M 28.296875 8.179688 "/>
<path style=" stroke:none;fill-rule:nonzero;fill:rgb(0%,0%,0%);fill-opacity:1;" d="M 53.753906 8.453125 C 53.753906 8.621094 53.921875 8.789062 54.09375 8.789062 C 54.296875 8.789062 54.429688 8.621094 54.429688 8.453125 C 54.429688 8.25 54.296875 8.113281 54.09375 8.113281 C 53.921875 8.113281 53.753906 8.25 53.753906 8.453125 Z M 53.753906 8.453125 "/>
<path style=" stroke:none;fill-rule:nonzero;fill:rgb(0%,0%,0%);fill-opacity:1;" d="M 24.949219 9.5 C 24.039062 10.007812 24.171875 11.699219 25.1875 12.679688 C 25.625 13.152344 26.167969 13.523438 26.371094 13.523438 C 26.910156 13.523438 28.09375 12.171875 27.890625 11.800781 C 27.757812 11.628906 27.382812 11.832031 27.046875 12.238281 C 26.539062 12.878906 26.371094 12.949219 25.898438 12.542969 C 25.355469 12.101562 25.421875 12 26.335938 11.394531 C 27.585938 10.617188 27.621094 10.34375 26.640625 9.667969 C 25.761719 9.027344 25.726562 9.027344 24.949219 9.5 Z M 26.269531 10.378906 C 26.402344 10.75 25.390625 11.292969 25.085938 11.019531 C 25.019531 10.921875 25.019531 10.617188 25.152344 10.3125 C 25.355469 9.703125 26.066406 9.769531 26.269531 10.378906 Z M 26.269531 10.378906 "/>
<path style=" stroke:none;fill-rule:nonzero;fill:rgb(0%,0%,0%);fill-opacity:1;" d="M 53.179688 9.871094 C 52.808594 10.378906 51.726562 12.679688 51.726562 12.980469 C 51.726562 13.691406 52.402344 12.949219 53.078125 11.496094 C 53.820312 9.90625 53.890625 8.960938 53.179688 9.871094 Z M 53.179688 9.871094 "/>
<path style=" stroke:none;fill-rule:nonzero;fill:rgb(0%,0%,0%);fill-opacity:1;" d="M 21.839844 10.683594 C 21.976562 11.191406 22.3125 11.867188 22.617188 12.171875 C 22.921875 12.507812 23.429688 13.183594 23.765625 13.660156 C 24.105469 14.164062 24.542969 14.4375 24.746094 14.335938 C 25.019531 14.164062 24.984375 13.960938 24.644531 13.726562 C 23.9375 13.183594 22.921875 11.527344 23.125 11.222656 C 23.292969 10.953125 22.179688 9.804688 21.804688 9.804688 C 21.703125 9.804688 21.738281 10.210938 21.839844 10.683594 Z M 21.839844 10.683594 "/>
<path style=" stroke:none;fill-rule:nonzero;fill:rgb(0%,0%,0%);fill-opacity:1;" d="M 54.09375 11.394531 C 53.652344 11.96875 53.417969 12.679688 53.484375 13.320312 C 53.550781 14.199219 53.753906 14.402344 54.53125 14.46875 C 55.679688 14.605469 56.289062 14.164062 56.761719 12.8125 C 57.066406 11.96875 57 11.699219 56.460938 11.15625 C 55.546875 10.242188 54.9375 10.3125 54.09375 11.394531 Z M 56.085938 11.628906 C 56.59375 12.238281 56.121094 13.320312 55.105469 13.859375 C 54.601562 14.132812 54.398438 14.0625 54.125 13.558594 C 53.855469 13.082031 53.921875 12.710938 54.464844 12.035156 C 55.242188 11.019531 55.546875 10.953125 56.085938 11.628906 Z M 56.085938 11.628906 "/>
<path style=" stroke:none;fill-rule:nonzero;fill:rgb(0%,0%,0%);fill-opacity:1;" d="M 19.574219 12.710938 C 18.898438 13.558594 19.609375 14.367188 21.097656 14.367188 C 21.738281 14.367188 22.3125 14.46875 22.3125 14.605469 C 22.3125 14.773438 22.3125 15.011719 22.3125 15.179688 C 22.3125 15.347656 21.90625 15.550781 21.398438 15.621094 C 20.554688 15.753906 20.519531 15.789062 21.097656 16.058594 C 22.007812 16.464844 22.820312 15.820312 22.820312 14.671875 C 22.820312 13.726562 22.753906 13.691406 21.398438 13.792969 C 19.914062 13.859375 19.339844 13.285156 20.621094 12.949219 C 20.996094 12.847656 21.300781 12.644531 21.300781 12.476562 C 21.300781 11.96875 20.046875 12.136719 19.574219 12.710938 Z M 19.574219 12.710938 "/>
<path style=" stroke:none;fill-rule:nonzero;fill:rgb(0%,0%,0%);fill-opacity:1;" d="M 57.167969 14.164062 C 55.714844 15.992188 55.851562 16.296875 57.441406 14.738281 C 58.65625 13.558594 59.5 13.355469 59.5 14.265625 C 59.5 14.46875 59.097656 15.144531 58.621094 15.789062 C 57.539062 17.242188 57.8125 17.679688 58.960938 16.363281 C 60.179688 14.976562 60.449219 13.859375 59.671875 13.285156 C 58.691406 12.609375 58.285156 12.746094 57.167969 14.164062 Z M 57.167969 14.164062 "/>
<path style=" stroke:none;fill-rule:nonzero;fill:rgb(0%,0%,0%);fill-opacity:1;" d="M 16.972656 14.941406 C 16.734375 15.179688 16.566406 15.71875 16.601562 16.195312 L 16.632812 17.074219 L 16.871094 16.226562 C 17.003906 15.753906 17.378906 15.347656 17.679688 15.28125 C 18.324219 15.144531 18.425781 15.621094 17.882812 16.601562 C 17.714844 16.972656 17.648438 17.578125 17.75 17.917969 C 18.019531 18.761719 19.539062 18.832031 19.84375 17.984375 C 19.980469 17.679688 20.21875 17.308594 20.386719 17.207031 C 20.824219 16.902344 18.628906 14.539062 17.917969 14.539062 C 17.613281 14.539062 17.207031 14.707031 16.972656 14.941406 Z M 19.539062 17.003906 C 19.609375 17.34375 19.40625 17.679688 19.101562 17.78125 C 18.390625 18.085938 18.15625 17.78125 18.425781 16.902344 C 18.695312 16.09375 19.371094 16.160156 19.539062 17.003906 Z M 19.539062 17.003906 "/>
<path style=" stroke:none;fill-rule:nonzero;fill:rgb(0%,0%,0%);fill-opacity:1;" d="M 37.085938 15.820312 C 35.125 17.410156 33.976562 18.863281 32.761719 21.570312 C 31.847656 23.597656 31.746094 23.664062 30.867188 23.429688 C 30.359375 23.292969 29.3125 23.160156 28.566406 23.160156 L 27.214844 23.160156 L 26.878906 25.355469 L 26.503906 27.554688 L 24.105469 27.757812 C 21.535156 27.992188 18.832031 29.039062 17.105469 30.496094 C 16.160156 31.304688 16.160156 31.375 16.566406 32.660156 C 17.207031 34.621094 18.964844 37.1875 20.722656 38.742188 L 22.3125 40.128906 L 21.773438 41.683594 C 21.5 42.53125 21.300781 43.644531 21.367188 44.1875 C 21.46875 45 21.703125 45.199219 23.089844 45.605469 C 24.476562 46.046875 24.679688 46.214844 24.511719 46.789062 C 24.410156 47.195312 24.140625 48.648438 23.9375 50.070312 C 23.496094 52.875 24.003906 56.425781 24.917969 57.167969 C 25.761719 57.878906 29.886719 57.304688 32.21875 56.15625 C 33.367188 55.578125 34.550781 54.9375 34.820312 54.734375 C 35.261719 54.429688 35.601562 54.632812 36.75 55.75 C 37.492188 56.527344 38.371094 57.136719 38.675781 57.136719 C 38.980469 57.136719 39.894531 56.527344 40.671875 55.816406 L 42.125 54.464844 L 44.457031 55.648438 C 46.890625 56.832031 50.40625 57.539062 52.0625 57.136719 C 54.023438 56.695312 54.296875 50.746094 52.570312 46.554688 C 52.402344 46.148438 52.503906 45.980469 52.941406 45.980469 C 53.316406 45.980469 54.160156 45.808594 54.871094 45.605469 C 56.054688 45.300781 56.121094 45.199219 56.121094 43.949219 C 56.121094 43.207031 55.882812 42.023438 55.578125 41.28125 L 55.074219 39.960938 L 56.761719 38.371094 C 58.65625 36.613281 61.125 32.253906 60.753906 31.339844 C 60.449219 30.5625 57.640625 28.804688 55.953125 28.332031 C 55.207031 28.128906 53.753906 27.859375 52.738281 27.757812 L 50.878906 27.554688 L 50.542969 25.355469 L 50.203125 23.160156 L 49.019531 23.191406 C 48.378906 23.191406 47.261719 23.261719 46.554688 23.359375 C 45.269531 23.496094 45.269531 23.496094 44.695312 21.804688 C 43.847656 19.441406 42.5625 17.511719 40.839844 16.160156 C 38.742188 14.46875 38.8125 14.46875 37.085938 15.820312 Z M 40.875 17.308594 C 41.820312 18.289062 43.003906 19.84375 43.441406 20.792969 C 44.355469 22.71875 45.101562 26.675781 44.796875 28.09375 C 44.660156 28.636719 44.660156 29.175781 44.761719 29.34375 C 44.863281 29.515625 45.980469 29.378906 47.230469 29.039062 C 50.101562 28.296875 52.367188 28.261719 54.9375 28.90625 C 57.101562 29.480469 59.398438 30.800781 59.738281 31.644531 C 60.078125 32.523438 58.421875 35.53125 56.628906 37.390625 C 54.667969 39.386719 52.0625 40.839844 49.867188 41.144531 C 49.019531 41.246094 48.34375 41.414062 48.34375 41.480469 C 48.34375 41.582031 48.851562 42.261719 49.496094 43.003906 C 52.199219 46.148438 53.550781 50.980469 52.707031 54.429688 L 52.234375 56.289062 L 49.800781 56.257812 C 47.972656 56.222656 46.925781 55.984375 45.4375 55.308594 C 43.140625 54.261719 40.097656 51.761719 39.351562 50.273438 L 38.8125 49.257812 L 37.933594 50.40625 C 35.195312 53.992188 31.441406 56.257812 27.65625 56.660156 C 25.121094 56.898438 25.21875 57 24.714844 53.6875 C 24.140625 50.070312 25.421875 45.742188 27.859375 43.003906 C 28.535156 42.261719 28.972656 41.582031 28.839844 41.480469 C 28.703125 41.378906 27.890625 41.210938 27.078125 41.078125 C 23.5625 40.5 19.777344 37.492188 17.953125 33.839844 L 16.902344 31.78125 L 18.460938 30.664062 C 20.453125 29.277344 21.941406 28.738281 24.679688 28.5 C 26.640625 28.363281 29.886719 28.839844 31.8125 29.582031 C 32.285156 29.75 32.386719 29.378906 32.523438 26.640625 C 32.660156 24.207031 32.894531 23.058594 33.570312 21.535156 C 34.449219 19.609375 37.933594 15.550781 38.710938 15.550781 C 38.914062 15.550781 39.894531 16.363281 40.875 17.308594 Z M 30.5625 24.171875 C 31.78125 24.375 31.847656 24.441406 31.644531 25.421875 C 31.542969 26 31.441406 26.945312 31.441406 27.554688 L 31.441406 28.667969 L 29.515625 28.058594 L 27.554688 27.453125 L 27.65625 25.964844 C 27.757812 24.003906 27.960938 23.597656 28.636719 23.765625 C 28.972656 23.867188 29.820312 24.039062 30.5625 24.171875 Z M 49.832031 25.59375 C 49.933594 26.4375 49.96875 27.25 49.867188 27.382812 C 49.765625 27.519531 49.121094 27.757812 48.445312 27.890625 C 47.738281 27.992188 46.824219 28.195312 46.417969 28.296875 C 45.675781 28.464844 45.640625 28.363281 45.640625 26.4375 L 45.640625 24.410156 L 47.261719 24.105469 C 48.140625 23.9375 49.019531 23.835938 49.222656 23.902344 C 49.425781 23.96875 49.699219 24.746094 49.832031 25.59375 Z M 25.289062 41.414062 C 26.234375 41.785156 27.046875 42.191406 27.046875 42.292969 C 27.046875 42.429688 26.640625 43.140625 26.167969 43.917969 C 25.355469 45.132812 25.152344 45.234375 24.207031 45.101562 C 22.414062 44.796875 22.3125 44.695312 22.3125 43.476562 C 22.3125 42.160156 22.855469 40.46875 23.261719 40.636719 C 23.394531 40.703125 24.308594 41.042969 25.289062 41.414062 Z M 55.074219 42.058594 C 55.714844 44.625 55.714844 44.625 53.214844 45.132812 C 52.300781 45.300781 52.097656 45.167969 51.082031 43.78125 C 50.476562 42.902344 50 42.191406 50.070312 42.160156 C 50.609375 41.785156 53.6875 40.636719 54.125 40.601562 C 54.53125 40.570312 54.800781 41.042969 55.074219 42.058594 Z M 41.246094 53.855469 C 41.246094 54.023438 40.703125 54.699219 40.0625 55.34375 C 38.742188 56.660156 38.136719 56.558594 36.851562 54.769531 L 36.140625 53.753906 L 37.425781 52.234375 L 38.675781 50.710938 L 39.960938 52.132812 C 40.636719 52.941406 41.210938 53.71875 41.246094 53.855469 Z M 41.246094 53.855469 "/>
<path style=" stroke:none;fill-rule:nonzero;fill:rgb(0%,0%,0%);fill-opacity:1;" d="M 39.015625 21.199219 C 39.285156 21.671875 38.675781 22.109375 38.371094 21.636719 C 37.964844 20.960938 37.492188 21.300781 37.863281 21.976562 C 38.066406 22.347656 38.441406 22.652344 38.675781 22.652344 C 39.320312 22.652344 39.65625 21.601562 39.183594 21.164062 C 38.878906 20.894531 38.84375 20.894531 39.015625 21.199219 Z M 39.015625 21.199219 "/>
<path style=" stroke:none;fill-rule:nonzero;fill:rgb(0%,0%,0%);fill-opacity:1;" d="M 36.003906 30.425781 C 35.871094 30.664062 35.972656 30.96875 36.207031 31.136719 C 36.578125 31.375 36.578125 31.441406 36.105469 31.441406 C 35.800781 31.441406 35.429688 31.273438 35.328125 31.101562 C 35.023438 30.597656 34.484375 31.035156 34.71875 31.609375 C 34.820312 31.878906 34.71875 32.117188 34.519531 32.117188 C 34.316406 32.117188 34.144531 31.878906 34.144531 31.609375 C 34.144531 30.898438 33.539062 30.96875 33.0625 31.78125 C 32.828125 32.152344 32.457031 32.457031 32.21875 32.457031 C 31.507812 32.457031 31.375 33.164062 31.980469 33.671875 C 32.589844 34.144531 32.558594 34.144531 31.847656 33.808594 C 30.5625 33.164062 29.75 34.417969 31 35.125 C 31.339844 35.296875 31.476562 35.566406 31.339844 35.699219 C 31.203125 35.835938 30.898438 35.769531 30.699219 35.566406 C 30.019531 34.890625 29.683594 35.09375 29.785156 36.105469 C 29.851562 36.613281 29.820312 37.1875 29.683594 37.359375 C 29.277344 38.066406 29.480469 40.570312 29.953125 40.570312 C 30.527344 40.570312 30.5625 41.144531 30.019531 41.347656 C 29.785156 41.449219 29.921875 41.550781 30.359375 41.550781 C 31.238281 41.582031 31.679688 40.773438 31.136719 40.097656 C 30.933594 39.859375 30.832031 39.386719 30.96875 39.082031 C 31.070312 38.777344 30.96875 38.269531 30.730469 37.964844 C 30.324219 37.492188 30.324219 37.425781 30.730469 37.695312 C 31.101562 37.898438 31.171875 37.796875 31.035156 37.257812 C 30.898438 36.75 30.96875 36.511719 31.304688 36.511719 C 31.578125 36.511719 31.8125 36.308594 31.8125 36.074219 C 31.847656 35.871094 31.878906 35.5 31.914062 35.296875 C 31.914062 35.09375 32.386719 34.550781 32.960938 34.078125 C 33.808594 33.335938 33.910156 33.132812 33.503906 32.660156 C 32.960938 32.015625 33.234375 31.949219 34.179688 32.523438 C 34.753906 32.859375 34.957031 32.859375 35.058594 32.523438 C 35.160156 32.320312 35.601562 32.117188 36.039062 32.117188 C 37.054688 32.117188 37.460938 31.238281 36.78125 30.527344 C 36.378906 30.15625 36.207031 30.121094 36.003906 30.425781 Z M 36.003906 30.425781 "/>
<path style=" stroke:none;fill-rule:nonzero;fill:rgb(0%,0%,0%);fill-opacity:1;" d="M 40.46875 30.800781 C 40.097656 32.152344 40.976562 32.660156 41.414062 31.339844 L 41.683594 30.597656 L 41.820312 31.339844 C 41.957031 32.117188 42.597656 32.457031 42.597656 31.78125 C 42.597656 31.578125 42.765625 31.441406 42.9375 31.441406 C 43.171875 31.441406 43.171875 31.644531 42.9375 32.117188 C 42.734375 32.488281 42.664062 32.828125 42.765625 32.828125 C 42.867188 32.859375 43.105469 32.894531 43.273438 32.929688 C 43.476562 32.929688 43.78125 33.164062 43.917969 33.4375 C 44.085938 33.671875 44.390625 33.773438 44.59375 33.671875 C 44.796875 33.539062 44.964844 33.671875 44.964844 33.941406 C 44.964844 34.417969 45.066406 34.417969 45.640625 34.078125 C 46.011719 33.839844 46.316406 33.539062 46.316406 33.367188 C 46.316406 33.234375 46.179688 33.199219 45.980469 33.300781 C 45.808594 33.402344 45.640625 33.335938 45.640625 33.164062 C 45.640625 32.960938 45.402344 32.792969 45.132812 32.792969 C 44.863281 32.792969 44.625 32.558594 44.625 32.253906 C 44.625 31.914062 44.421875 31.78125 44.152344 31.878906 C 43.882812 31.980469 43.613281 31.8125 43.511719 31.476562 C 43.441406 31.136719 43.003906 30.800781 42.5625 30.699219 C 42.125 30.597656 41.515625 30.394531 41.210938 30.292969 C 40.804688 30.121094 40.601562 30.257812 40.46875 30.800781 Z M 40.46875 30.800781 "/>
<path style=" stroke:none;fill-rule:nonzero;fill:rgb(0%,0%,0%);fill-opacity:1;" d="M 46.113281 34.753906 C 45.640625 35.023438 45.808594 37.085938 46.351562 37.730469 C 46.554688 38 46.621094 38.441406 46.519531 38.742188 C 46.28125 39.386719 46.621094 41.582031 46.960938 41.582031 C 47.058594 41.582031 47.398438 41.414062 47.667969 41.246094 C 48.109375 40.941406 48.109375 40.839844 47.601562 40.433594 C 46.890625 39.894531 46.824219 39.554688 47.433594 39.554688 C 47.636719 39.554688 47.871094 39.183594 47.871094 38.710938 C 47.90625 38.238281 47.769531 37.863281 47.601562 37.863281 C 47.398438 37.863281 47.332031 37.628906 47.433594 37.390625 C 47.566406 37.054688 47.464844 36.953125 47.128906 37.085938 C 46.484375 37.324219 46.519531 36.851562 47.261719 36.277344 C 47.804688 35.800781 47.804688 35.800781 47.261719 35.972656 C 46.925781 36.074219 46.585938 36.003906 46.484375 35.835938 C 46.351562 35.632812 46.519531 35.5 46.789062 35.5 C 47.128906 35.5 47.230469 35.296875 47.128906 34.992188 C 46.890625 34.417969 46.6875 34.382812 46.113281 34.753906 Z M 46.113281 34.753906 "/>
<path style=" stroke:none;fill-rule:nonzero;fill:rgb(0%,0%,0%);fill-opacity:1;" d="M 37.527344 35.226562 C 37.527344 35.53125 37.695312 35.902344 37.863281 36.003906 C 38.066406 36.105469 38.203125 36.511719 38.203125 36.917969 C 38.203125 37.492188 38.066406 37.558594 37.359375 37.390625 C 36.105469 37.054688 36.34375 37.660156 37.695312 38.203125 C 38.914062 38.675781 39.148438 39.015625 38.507812 39.421875 C 38.304688 39.519531 38.203125 39.925781 38.304688 40.265625 C 38.441406 40.773438 38.304688 40.90625 37.59375 40.941406 C 37.085938 40.941406 36.882812 41.042969 37.121094 41.144531 C 37.324219 41.210938 37.527344 41.515625 37.527344 41.785156 C 37.527344 42.089844 37.660156 42.226562 37.832031 42.089844 C 38 41.988281 38.238281 42.058594 38.339844 42.226562 C 38.441406 42.394531 38.84375 42.460938 39.21875 42.359375 C 39.621094 42.261719 39.824219 42.089844 39.722656 41.988281 C 39.621094 41.886719 40.027344 41.515625 40.636719 41.210938 L 41.753906 40.601562 L 40.535156 40.804688 C 39.453125 40.941406 39.25 40.875 39.046875 40.265625 C 38.8125 39.488281 39.621094 37.863281 40.230469 37.863281 C 40.433594 37.863281 40.570312 37.730469 40.570312 37.558594 C 40.570312 37.425781 40.199219 37.359375 39.722656 37.460938 C 38.710938 37.628906 38.640625 37.222656 39.554688 36.074219 C 40.164062 35.296875 40.199219 35.226562 39.65625 35.023438 C 39.320312 34.890625 39.183594 34.890625 39.320312 35.023438 C 39.453125 35.160156 39.386719 35.5 39.148438 35.734375 C 38.8125 36.140625 38.640625 36.105469 38.136719 35.429688 C 37.660156 34.820312 37.527344 34.753906 37.527344 35.226562 Z M 37.527344 35.226562 "/>
<path style=" stroke:none;fill-rule:nonzero;fill:rgb(0%,0%,0%);fill-opacity:1;" d="M 33.605469 42.292969 C 33.503906 42.496094 33.605469 42.800781 33.839844 42.96875 C 34.214844 43.207031 34.179688 43.273438 33.738281 43.273438 C 33.402344 43.273438 33.132812 43.410156 33.132812 43.613281 C 33.132812 43.78125 33.738281 43.949219 34.484375 43.949219 C 35.835938 43.949219 36.34375 43.441406 35.261719 43.171875 C 34.6875 43.039062 34.6875 43.003906 35.261719 42.96875 C 35.566406 42.96875 35.835938 42.765625 35.835938 42.5625 C 35.835938 42.359375 35.53125 42.261719 35.160156 42.359375 C 34.789062 42.460938 34.484375 42.394531 34.484375 42.226562 C 34.484375 41.785156 33.910156 41.855469 33.605469 42.292969 Z M 33.605469 42.292969 "/>
<path style=" stroke:none;fill-rule:nonzero;fill:rgb(0%,0%,0%);fill-opacity:1;" d="M 36.34375 42.9375 C 36.378906 43.308594 36.480469 43.714844 36.613281 43.816406 C 37.019531 44.21875 36.882812 44.625 36.34375 44.625 C 36.039062 44.625 35.9375 44.828125 36.039062 45.132812 C 36.175781 45.472656 36.039062 45.640625 35.667969 45.640625 C 35.296875 45.640625 35.160156 45.472656 35.261719 45.167969 C 35.398438 44.828125 35.296875 44.726562 34.957031 44.863281 C 34.71875 44.964844 34.484375 45.167969 34.484375 45.335938 C 34.484375 45.503906 34.042969 45.574219 33.503906 45.472656 C 32.761719 45.335938 32.253906 45.503906 31.609375 46.046875 L 30.730469 46.824219 L 38.507812 46.824219 C 42.800781 46.824219 46.316406 46.722656 46.316406 46.585938 C 46.316406 46.148438 44.796875 45.503906 43.984375 45.605469 C 43.542969 45.640625 43.070312 45.503906 42.902344 45.234375 C 42.699219 44.898438 42.53125 44.898438 42.191406 45.234375 C 41.683594 45.742188 41.246094 45.777344 41.246094 45.269531 C 41.246094 44.457031 42.292969 43.882812 43.476562 44.019531 L 44.660156 44.152344 L 43.882812 43.542969 C 43.441406 43.207031 43.308594 42.9375 43.542969 42.9375 C 43.78125 42.9375 43.917969 42.800781 43.816406 42.664062 C 43.714844 42.496094 42.867188 42.359375 41.957031 42.292969 C 40.332031 42.226562 40.0625 42.359375 40.164062 43.308594 C 40.199219 43.410156 39.453125 43.511719 38.574219 43.542969 C 37.085938 43.578125 36.953125 43.511719 37.085938 42.902344 C 37.222656 42.496094 37.085938 42.261719 36.78125 42.261719 C 36.511719 42.261719 36.308594 42.5625 36.34375 42.9375 Z M 42.261719 43.273438 C 41.785156 43.578125 40.164062 43.308594 40.398438 42.96875 C 40.46875 42.835938 41.007812 42.765625 41.617188 42.867188 C 42.226562 42.96875 42.496094 43.140625 42.261719 43.273438 Z M 41.582031 43.949219 C 41.582031 44.152344 41.347656 44.390625 41.078125 44.492188 C 40.804688 44.625 40.570312 44.898438 40.570312 45.167969 C 40.570312 45.777344 39.621094 45.777344 39.015625 45.132812 C 38.710938 44.863281 38.339844 44.625 38.136719 44.625 C 37.964844 44.625 37.863281 44.863281 38 45.132812 C 38.136719 45.472656 37.964844 45.640625 37.527344 45.640625 C 36.679688 45.640625 36.648438 44.761719 37.460938 44.355469 C 37.761719 44.1875 38.609375 44.121094 39.285156 44.1875 C 39.960938 44.253906 40.601562 44.152344 40.738281 43.949219 C 41.007812 43.511719 41.582031 43.511719 41.582031 43.949219 Z M 41.582031 43.949219 "/>
<path style=" stroke:none;fill-rule:nonzero;fill:rgb(0%,0%,0%);fill-opacity:1;" d="M 46.65625 47.464844 C 46.65625 47.804688 46.960938 48.007812 47.5 48.007812 C 47.972656 48.007812 48.34375 48.140625 48.34375 48.34375 C 48.34375 48.515625 48.515625 48.683594 48.75 48.683594 C 48.953125 48.683594 48.851562 48.378906 48.515625 48.007812 C 48.175781 47.636719 47.839844 47.398438 47.738281 47.5 C 47.636719 47.601562 47.363281 47.5 47.09375 47.296875 C 46.757812 46.992188 46.65625 47.027344 46.65625 47.464844 Z M 46.65625 47.464844 "/>
<path style=" stroke:none;fill-rule:nonzero;fill:rgb(0%,0%,0%);fill-opacity:1;" d="M 29.3125 47.601562 C 29.007812 47.667969 28.738281 47.972656 28.769531 48.277344 C 28.769531 48.648438 28.839844 48.683594 28.972656 48.414062 C 29.074219 48.109375 31.136719 48.007812 37.558594 48.007812 C 42.597656 48.007812 45.980469 47.871094 45.980469 47.703125 C 45.980469 47.398438 30.800781 47.332031 29.3125 47.601562 Z M 29.3125 47.601562 "/>
<path style=" stroke:none;fill-rule:nonzero;fill:rgb(0%,0%,0%);fill-opacity:1;" d="M 64.066406 16.296875 C 63.019531 16.871094 60.144531 19.339844 60.3125 19.507812 C 60.378906 19.609375 60.957031 19.40625 61.53125 19.066406 C 62.410156 18.527344 62.613281 18.492188 62.882812 18.933594 C 63.050781 19.238281 62.984375 19.84375 62.679688 20.554688 C 62.410156 21.199219 62.207031 21.839844 62.207031 22.007812 C 62.207031 22.652344 62.746094 22.246094 63.253906 21.199219 C 63.59375 20.519531 64.066406 20.082031 64.605469 20.015625 C 66.398438 19.742188 66.738281 18.660156 65.484375 17.003906 C 64.84375 16.125 64.605469 16.023438 64.066406 16.296875 Z M 65.113281 17.75 C 65.722656 18.660156 65.519531 19.269531 64.574219 19.269531 C 63.695312 19.269531 63.050781 18.054688 63.59375 17.378906 C 64.132812 16.699219 64.472656 16.769531 65.113281 17.75 Z M 65.113281 17.75 "/>
<path style=" stroke:none;fill-rule:nonzero;fill:rgb(0%,0%,0%);fill-opacity:1;" d="M 14.265625 17.648438 C 13.726562 18.1875 13.761719 19.101562 14.367188 19.609375 C 14.773438 19.945312 15.042969 19.914062 15.753906 19.441406 C 16.363281 19.066406 16.734375 18.964844 16.972656 19.203125 C 17.445312 19.675781 17.003906 20.285156 16.195312 20.285156 C 15.855469 20.285156 15.550781 20.421875 15.550781 20.621094 C 15.550781 21.230469 17.207031 20.996094 17.578125 20.320312 C 18.289062 18.964844 17.175781 17.984375 15.71875 18.660156 C 14.707031 19.136719 14.132812 18.695312 14.976562 18.121094 C 15.28125 17.882812 15.550781 17.578125 15.550781 17.445312 C 15.550781 17.105469 14.707031 17.207031 14.265625 17.648438 Z M 14.265625 17.648438 "/>
<path style=" stroke:none;fill-rule:nonzero;fill:rgb(0%,0%,0%);fill-opacity:1;" d="M 11.324219 19.269531 C 11.425781 19.441406 11.597656 19.609375 11.699219 19.609375 C 11.765625 19.609375 11.832031 19.441406 11.832031 19.269531 C 11.832031 19.066406 11.664062 18.933594 11.460938 18.933594 C 11.292969 18.933594 11.222656 19.066406 11.324219 19.269531 Z M 11.324219 19.269531 "/>
<path style=" stroke:none;fill-rule:nonzero;fill:rgb(0%,0%,0%);fill-opacity:1;" d="M 12.507812 20.117188 C 12.507812 20.386719 15.28125 22.3125 15.6875 22.3125 C 16.226562 22.28125 13.523438 19.945312 12.949219 19.945312 C 12.710938 19.945312 12.507812 20.015625 12.507812 20.117188 Z M 12.507812 20.117188 "/>
<path style=" stroke:none;fill-rule:nonzero;fill:rgb(0%,0%,0%);fill-opacity:1;" d="M 10.277344 21.300781 C 9.464844 21.601562 8.351562 23.191406 8.621094 23.664062 C 8.824219 23.96875 12.914062 26.371094 13.253906 26.371094 C 13.355469 26.371094 13.691406 25.796875 13.996094 25.050781 C 14.570312 23.800781 14.570312 23.699219 14.03125 22.855469 C 13.691406 22.378906 13.421875 21.976562 13.355469 21.976562 C 13.320312 21.976562 12.746094 21.773438 12.136719 21.5 C 11.425781 21.230469 10.71875 21.128906 10.277344 21.300781 Z M 12.746094 22.550781 C 13.691406 23.160156 13.929688 23.902344 13.523438 24.714844 C 13.050781 25.558594 12.8125 25.523438 10.988281 24.441406 C 9.296875 23.394531 9.128906 22.921875 10.175781 22.179688 C 10.921875 21.671875 11.460938 21.738281 12.746094 22.550781 Z M 12.746094 22.550781 "/>
<path style=" stroke:none;fill-rule:nonzero;fill:rgb(0%,0%,0%);fill-opacity:1;" d="M 64.878906 21.703125 C 62.949219 22.347656 62.78125 24.714844 64.605469 24.984375 L 65.417969 25.085938 L 64.605469 24.441406 C 64.066406 24.003906 63.863281 23.5625 64 23.226562 C 64.300781 22.414062 64.742188 22.515625 65.179688 23.496094 C 65.824219 24.917969 67.445312 24.238281 67.210938 22.617188 C 67.074219 21.703125 66.058594 21.300781 64.878906 21.703125 Z M 66.535156 22.921875 C 66.601562 23.328125 66.5 23.664062 66.296875 23.664062 C 65.859375 23.664062 65.214844 22.480469 65.484375 22.179688 C 65.890625 21.773438 66.433594 22.179688 66.535156 22.921875 Z M 66.535156 22.921875 "/>
<path style=" stroke:none;fill-rule:nonzero;fill:rgb(0%,0%,0%);fill-opacity:1;" d="M 66.839844 25.253906 C 66.703125 25.355469 66.601562 25.964844 66.601562 26.605469 C 66.601562 27.382812 66.433594 27.722656 66.09375 27.722656 C 65.585938 27.722656 65.453125 27.382812 65.585938 26.199219 C 65.65625 25.558594 65.621094 25.558594 65.046875 26.101562 C 64.503906 26.640625 64.503906 26.707031 65.046875 27.519531 C 65.960938 28.972656 67.277344 28.433594 67.277344 26.640625 C 67.277344 26 67.445312 25.695312 67.820312 25.695312 C 68.191406 25.695312 68.324219 25.898438 68.191406 26.371094 C 67.988281 27.113281 68.460938 27.621094 68.800781 27.046875 C 69.273438 26.300781 68.664062 25.019531 67.820312 25.019531 C 67.414062 25.019531 66.941406 25.121094 66.839844 25.253906 Z M 66.839844 25.253906 "/>
<path style=" stroke:none;fill-rule:nonzero;fill:rgb(0%,0%,0%);fill-opacity:1;" d="M 6.761719 27.6875 C 6.761719 27.859375 7.03125 28.09375 7.402344 28.230469 C 7.84375 28.363281 7.980469 28.636719 7.84375 29.242188 C 7.640625 30.359375 8.25 31.035156 9.703125 31.304688 C 11.019531 31.542969 11.699219 31.101562 11.898438 29.820312 C 12 29.140625 11.730469 28.941406 9.636719 28.230469 C 6.929688 27.28125 6.761719 27.28125 6.761719 27.6875 Z M 10.953125 29.414062 C 11.394531 29.851562 10.921875 30.765625 10.242188 30.765625 C 9.90625 30.765625 9.261719 30.527344 8.859375 30.222656 C 8.214844 29.785156 8.148438 29.582031 8.484375 29.175781 C 8.925781 28.667969 10.34375 28.804688 10.953125 29.414062 Z M 10.953125 29.414062 "/>
<path style=" stroke:none;fill-rule:nonzero;fill:rgb(0%,0%,0%);fill-opacity:1;" d="M 66.941406 28.839844 C 65.554688 29.546875 65.757812 31.78125 67.210938 31.78125 C 67.648438 31.78125 67.617188 31.679688 67.109375 31.101562 C 66.535156 30.460938 66.601562 29.414062 67.242188 29.414062 C 67.414062 29.414062 67.71875 29.851562 67.921875 30.425781 C 68.257812 31.476562 69 31.746094 69.542969 31 C 70.996094 29.140625 69.238281 27.65625 66.941406 28.839844 Z M 69.476562 29.414062 C 69.746094 29.851562 69 30.832031 68.597656 30.5625 C 68.425781 30.460938 68.292969 30.089844 68.292969 29.71875 C 68.292969 29.039062 69.101562 28.839844 69.476562 29.414062 Z M 69.476562 29.414062 "/>
<path style=" stroke:none;fill-rule:nonzero;fill:rgb(0%,0%,0%);fill-opacity:1;" d="M 7.066406 32.355469 C 6.863281 33.773438 6.828125 34.484375 7.03125 34.621094 C 7.167969 34.6875 8.113281 34.855469 9.128906 34.992188 C 11.222656 35.261719 11.15625 34.820312 9.027344 34.316406 C 8.078125 34.078125 7.574219 33.773438 7.503906 33.335938 C 7.371094 32.761719 7.539062 32.691406 9.261719 32.894531 C 10.3125 32.996094 11.15625 32.960938 11.15625 32.828125 C 11.15625 32.253906 7.132812 31.847656 7.066406 32.355469 Z M 7.066406 32.355469 "/>
<path style=" stroke:none;fill-rule:nonzero;fill:rgb(0%,0%,0%);fill-opacity:1;" d="M 67.007812 32.761719 C 66.667969 32.960938 66.636719 33.402344 66.769531 34.28125 L 67.007812 35.53125 L 68.597656 35.296875 C 69.441406 35.160156 70.355469 34.921875 70.589844 34.753906 C 71.164062 34.28125 71.097656 33.300781 70.488281 32.792969 C 69.8125 32.253906 69.40625 32.625 69.949219 33.265625 C 70.386719 33.773438 70.183594 34.484375 69.644531 34.484375 C 69.476562 34.484375 69.238281 34.144531 69.101562 33.707031 C 68.730469 32.558594 67.921875 32.152344 67.007812 32.761719 Z M 68.5625 34.113281 C 68.664062 34.753906 68.5625 34.855469 68.121094 34.6875 C 67.820312 34.585938 67.480469 34.484375 67.414062 34.484375 C 67.34375 34.484375 67.277344 34.179688 67.277344 33.773438 C 67.277344 32.792969 68.425781 33.0625 68.5625 34.113281 Z M 68.5625 34.113281 "/>
<path style=" stroke:none;fill-rule:nonzero;fill:rgb(0%,0%,0%);fill-opacity:1;" d="M 6.929688 36.277344 C 6.289062 36.613281 6.253906 38 6.898438 38.507812 C 7.300781 38.84375 7.371094 38.742188 7.335938 37.964844 C 7.269531 36.816406 7.878906 36.511719 8.113281 37.558594 C 8.351562 38.472656 9.195312 39.046875 9.941406 38.777344 C 10.71875 38.472656 10.683594 36.175781 9.90625 36.140625 C 7.878906 35.972656 7.402344 36.003906 6.929688 36.277344 Z M 10.140625 37.730469 C 10.140625 38.574219 8.960938 38.136719 8.859375 37.257812 C 8.757812 36.546875 8.824219 36.511719 9.433594 36.851562 C 9.839844 37.054688 10.140625 37.460938 10.140625 37.730469 Z M 10.140625 37.730469 "/>
<path style=" stroke:none;fill-rule:nonzero;fill:rgb(0%,0%,0%);fill-opacity:1;" d="M 68.121094 36.511719 L 66.769531 36.75 L 68.359375 36.816406 C 69.542969 36.851562 70.082031 37.019531 70.421875 37.558594 C 71.03125 38.40625 71.539062 37.832031 70.996094 36.851562 C 70.625 36.140625 70.355469 36.105469 68.121094 36.511719 Z M 68.121094 36.511719 "/>
<path style=" stroke:none;fill-rule:nonzero;fill:rgb(0%,0%,0%);fill-opacity:1;" d="M 67.445312 38.980469 C 66.703125 39.554688 66.972656 41.246094 67.820312 41.246094 C 68.257812 41.246094 68.292969 41.144531 67.953125 40.738281 C 67.34375 39.996094 67.785156 39.21875 68.867188 39.21875 C 70.21875 39.21875 70.960938 39.722656 70.386719 40.300781 C 70.183594 40.5 69.980469 40.941406 69.980469 41.210938 C 69.980469 41.582031 70.117188 41.550781 70.660156 41.078125 C 71.503906 40.332031 71.503906 39.824219 70.726562 39.117188 C 69.980469 38.441406 68.324219 38.371094 67.445312 38.980469 Z M 67.445312 38.980469 "/>
<path style=" stroke:none;fill-rule:nonzero;fill:rgb(0%,0%,0%);fill-opacity:1;" d="M 7.707031 41.820312 C 7.167969 41.886719 6.761719 42.089844 6.761719 42.226562 C 6.761719 42.597656 10.210938 42.261719 10.648438 41.886719 C 10.953125 41.582031 9.5 41.550781 7.707031 41.820312 Z M 7.707031 41.820312 "/>
<path style=" stroke:none;fill-rule:nonzero;fill:rgb(0%,0%,0%);fill-opacity:1;" d="M 5.070312 42.261719 C 5.070312 42.429688 5.238281 42.597656 5.410156 42.597656 C 5.613281 42.597656 5.746094 42.429688 5.746094 42.261719 C 5.746094 42.058594 5.613281 41.921875 5.410156 41.921875 C 5.238281 41.921875 5.070312 42.058594 5.070312 42.261719 Z M 5.070312 42.261719 "/>
<path style=" stroke:none;fill-rule:nonzero;fill:rgb(0%,0%,0%);fill-opacity:1;" d="M 66.941406 42.160156 C 66.941406 42.328125 67.582031 42.597656 68.359375 42.800781 C 69.375 43.003906 69.847656 43.308594 69.914062 43.746094 C 70.050781 44.320312 69.878906 44.355469 68.324219 44.21875 C 66.195312 44.019531 66.027344 44.492188 68.121094 44.828125 C 69.980469 45.101562 70.660156 44.863281 70.660156 43.949219 C 70.660156 43.441406 70.894531 43.273438 71.539062 43.273438 C 72.855469 43.273438 72.214844 42.699219 70.589844 42.460938 C 69.78125 42.328125 68.628906 42.160156 68.054688 42.058594 C 67.445312 41.921875 66.941406 41.988281 66.941406 42.160156 Z M 66.941406 42.160156 "/>
<path style=" stroke:none;fill-rule:nonzero;fill:rgb(0%,0%,0%);fill-opacity:1;" d="M 8.554688 43.375 C 7.066406 43.714844 6.492188 44.421875 7.132812 45.167969 C 7.335938 45.402344 7.402344 45.878906 7.300781 46.214844 C 7.199219 46.554688 7.300781 47.128906 7.539062 47.5 C 7.910156 48.140625 8.113281 48.175781 9.738281 47.90625 C 10.683594 47.738281 11.496094 47.464844 11.496094 47.296875 C 11.496094 47.09375 10.921875 47.027344 10.007812 47.160156 C 9.160156 47.296875 8.316406 47.296875 8.113281 47.160156 C 7.472656 46.757812 8.382812 46.046875 9.839844 45.808594 C 11.730469 45.472656 11.460938 44.964844 9.5 45.199219 C 8.382812 45.335938 7.777344 45.269531 7.605469 44.964844 C 7.269531 44.421875 7.878906 44.085938 9.5 43.816406 C 10.242188 43.714844 10.820312 43.441406 10.820312 43.273438 C 10.820312 42.867188 10.480469 42.902344 8.554688 43.375 Z M 8.554688 43.375 "/>
<path style=" stroke:none;fill-rule:nonzero;fill:rgb(0%,0%,0%);fill-opacity:1;" d="M 65.6875 48.175781 C 64.777344 48.820312 64.640625 50.40625 65.417969 51.050781 C 66.058594 51.589844 66.566406 51.21875 65.992188 50.644531 C 65.417969 50.070312 65.484375 49.191406 66.09375 48.683594 C 66.871094 48.039062 69.238281 48.820312 69.710938 49.867188 C 70.117188 50.78125 69.644531 51.726562 68.765625 51.726562 C 68.496094 51.726562 68.292969 51.859375 68.292969 52.0625 C 68.292969 52.640625 69.273438 52.4375 69.980469 51.726562 C 71.503906 50.203125 70.386719 48.515625 67.445312 47.871094 C 66.769531 47.738281 66.160156 47.839844 65.6875 48.175781 Z M 65.6875 48.175781 "/>
<path style=" stroke:none;fill-rule:nonzero;fill:rgb(0%,0%,0%);fill-opacity:1;" d="M 9.871094 49.019531 C 8.621094 49.597656 8.417969 49.800781 8.519531 50.578125 C 8.621094 51.523438 9.601562 52.402344 10.039062 51.929688 C 10.175781 51.792969 10.039062 51.523438 9.703125 51.355469 C 9.09375 50.980469 8.890625 50.035156 9.464844 50.035156 C 9.636719 50.035156 10.175781 50.441406 10.648438 50.914062 C 11.527344 51.792969 11.5625 51.792969 12.203125 51.183594 C 12.78125 50.609375 12.78125 50.375 12.441406 49.425781 C 11.96875 48.175781 11.800781 48.140625 9.871094 49.019531 Z M 12.070312 49.867188 C 12.171875 50.171875 12.136719 50.507812 12.035156 50.644531 C 11.765625 50.914062 10.75 50.304688 10.546875 49.765625 C 10.34375 49.15625 11.832031 49.292969 12.070312 49.867188 Z M 12.070312 49.867188 "/>
<path style=" stroke:none;fill-rule:nonzero;fill:rgb(0%,0%,0%);fill-opacity:1;" d="M 11.800781 52.402344 C 9.941406 53.382812 9.636719 53.890625 10.34375 54.9375 C 10.953125 55.882812 11.425781 55.851562 13.421875 54.699219 C 14.941406 53.789062 14.570312 53.484375 12.878906 54.261719 C 11.5625 54.835938 10.480469 54.769531 10.480469 54.125 C 10.480469 53.921875 11.191406 53.417969 12.070312 52.976562 C 12.914062 52.539062 13.488281 52.097656 13.320312 51.996094 C 13.152344 51.859375 12.476562 52.0625 11.800781 52.402344 Z M 11.800781 52.402344 "/>
<path style=" stroke:none;fill-rule:nonzero;fill:rgb(0%,0%,0%);fill-opacity:1;" d="M 63.253906 52.808594 C 62.949219 53.652344 63.121094 54.429688 63.625 54.429688 C 63.796875 54.429688 63.898438 54.09375 63.828125 53.652344 C 63.761719 53.113281 63.929688 52.875 64.503906 52.808594 C 65.382812 52.671875 65.417969 52.808594 64.742188 54.09375 C 64.234375 55.074219 64.234375 55.105469 65.113281 55.308594 C 67.039062 55.816406 67.953125 53.992188 66.398438 52.773438 C 65.179688 51.792969 63.625 51.828125 63.253906 52.808594 Z M 66.601562 54.09375 C 66.601562 54.53125 66.363281 54.769531 65.925781 54.769531 C 65.179688 54.769531 65.148438 54.734375 65.453125 53.957031 C 65.757812 53.179688 66.601562 53.28125 66.601562 54.09375 Z M 66.601562 54.09375 "/>
<path style=" stroke:none;fill-rule:nonzero;fill:rgb(0%,0%,0%);fill-opacity:1;" d="M 63.121094 56.054688 C 64.402344 57.203125 64.707031 58.148438 63.761719 58.148438 C 63.558594 58.148438 62.816406 57.777344 62.105469 57.304688 C 61.429688 56.832031 60.855469 56.59375 60.855469 56.761719 C 60.855469 57.238281 63.253906 58.824219 63.964844 58.824219 C 64.503906 58.824219 65.25 57.914062 65.25 57.203125 C 65.25 56.796875 62.578125 54.769531 62.070312 54.769531 C 61.867188 54.769531 62.339844 55.34375 63.121094 56.054688 Z M 63.121094 56.054688 "/>
<path style=" stroke:none;fill-rule:nonzero;fill:rgb(0%,0%,0%);fill-opacity:1;" d="M 13.355469 56.019531 C 11.628906 57.136719 11.699219 57.101562 11.898438 57.304688 C 12 57.40625 12.644531 57.167969 13.320312 56.761719 C 15.585938 55.445312 16.226562 56.796875 13.996094 58.183594 C 13.355469 58.554688 12.914062 59.027344 13.050781 59.199219 C 13.285156 59.601562 15.820312 57.8125 16.09375 57.035156 C 16.261719 56.527344 15.316406 55.105469 14.808594 55.105469 C 14.738281 55.105469 14.097656 55.511719 13.355469 56.019531 Z M 13.355469 56.019531 "/>
<path style=" stroke:none;fill-rule:nonzero;fill:rgb(0%,0%,0%);fill-opacity:1;" d="M 59.332031 58.148438 C 59.230469 58.351562 59.5 58.621094 59.941406 58.792969 C 60.378906 58.960938 61.160156 59.601562 61.632812 60.179688 C 62.140625 60.753906 62.542969 61.125 62.542969 61.023438 C 62.542969 60.886719 62.78125 60.957031 63.050781 61.191406 C 63.355469 61.429688 63.660156 61.53125 63.761719 61.429688 C 64 61.191406 63.152344 59.839844 62.746094 59.839844 C 62.613281 59.839844 61.9375 59.367188 61.292969 58.824219 C 60.078125 57.742188 59.671875 57.609375 59.332031 58.148438 Z M 59.332031 58.148438 "/>
<path style=" stroke:none;fill-rule:nonzero;fill:rgb(0%,0%,0%);fill-opacity:1;" d="M 15.921875 58.621094 C 15.652344 58.960938 15.652344 59.332031 15.890625 59.976562 C 16.328125 61.160156 16.328125 61.191406 15.71875 61.191406 C 15.449219 61.191406 15.214844 60.886719 15.214844 60.515625 C 15.214844 60.144531 15.042969 59.839844 14.839844 59.839844 C 14.640625 59.839844 14.539062 60.246094 14.605469 60.753906 C 14.707031 61.5625 14.875 61.699219 15.71875 61.699219 C 16.699219 61.699219 16.734375 61.664062 16.632812 60.246094 C 16.566406 59.164062 16.667969 58.824219 17.074219 58.824219 C 17.34375 58.824219 17.613281 58.960938 17.613281 59.164062 C 17.648438 59.332031 17.679688 59.636719 17.714844 59.804688 C 17.816406 60.550781 18.257812 60.550781 18.257812 59.804688 C 18.257812 58.320312 16.769531 57.574219 15.921875 58.621094 Z M 15.921875 58.621094 "/>
<path style=" stroke:none;fill-rule:nonzero;fill:rgb(0%,0%,0%);fill-opacity:1;" d="M 57.472656 60.179688 C 57.238281 60.652344 57.203125 61.058594 57.441406 61.460938 C 57.777344 62.003906 57.84375 61.9375 57.945312 60.855469 C 57.980469 60.246094 59.5 59.941406 59.5 60.550781 C 59.5 60.753906 59.164062 61.226562 58.792969 61.5625 C 58.183594 62.070312 58.117188 62.273438 58.488281 62.714844 C 59.0625 63.390625 60.71875 63.355469 60.988281 62.679688 C 61.359375 61.734375 61.191406 61.191406 60.347656 60.347656 C 59.332031 59.332031 57.980469 59.230469 57.472656 60.179688 Z M 60.515625 61.867188 C 60.515625 62.308594 60.28125 62.542969 59.839844 62.542969 C 59.0625 62.542969 58.960938 62.207031 59.570312 61.597656 C 60.179688 60.988281 60.515625 61.089844 60.515625 61.867188 Z M 60.515625 61.867188 "/>
<path style=" stroke:none;fill-rule:nonzero;fill:rgb(0%,0%,0%);fill-opacity:1;" d="M 19.269531 61.089844 C 19.238281 61.261719 18.628906 62.039062 17.917969 62.882812 C 16.871094 64.066406 16.5 64.300781 16.160156 63.964844 C 15.621094 63.421875 15.214844 63.457031 15.214844 63.964844 C 15.246094 64.4375 17.578125 66.363281 17.816406 66.128906 C 17.917969 66.058594 17.78125 65.6875 17.511719 65.28125 C 17.140625 64.640625 17.242188 64.4375 18.527344 63.121094 C 19.914062 61.734375 20.320312 60.855469 19.609375 60.855469 C 19.441406 60.855469 19.269531 60.957031 19.269531 61.089844 Z M 19.269531 61.089844 "/>
<path style=" stroke:none;fill-rule:nonzero;fill:rgb(0%,0%,0%);fill-opacity:1;" d="M 55.78125 61.734375 C 55.78125 61.835938 56.1875 62.410156 56.660156 62.984375 C 57.269531 63.695312 57.472656 64.234375 57.304688 64.808594 C 57.101562 65.722656 57.304688 65.789062 58.015625 65.078125 C 58.554688 64.539062 58.488281 64.335938 57.167969 62.644531 C 56.359375 61.597656 55.78125 61.226562 55.78125 61.734375 Z M 55.78125 61.734375 "/>
<path style=" stroke:none;fill-rule:nonzero;fill:rgb(0%,0%,0%);fill-opacity:1;" d="M 26.707031 63.21875 C 26.707031 63.660156 27.011719 64.03125 27.554688 64.234375 C 28.363281 64.539062 28.398438 64.640625 28.398438 68.121094 C 28.398438 70.253906 28.535156 71.671875 28.738281 71.671875 C 28.941406 71.671875 29.074219 70.253906 29.074219 68.121094 C 29.074219 64.605469 29.074219 64.539062 29.953125 64.234375 C 30.496094 64 30.765625 63.695312 30.699219 63.289062 C 30.628906 62.847656 30.191406 62.679688 28.636719 62.613281 C 26.878906 62.511719 26.707031 62.578125 26.707031 63.21875 Z M 26.707031 63.21875 "/>
<path style=" stroke:none;fill-rule:nonzero;fill:rgb(0%,0%,0%);fill-opacity:1;" d="M 31.578125 62.984375 C 31.507812 63.21875 31.476562 65.25 31.507812 67.445312 C 31.609375 71.0625 31.679688 71.503906 32.21875 71.605469 C 33.402344 71.839844 34.484375 71.335938 35.023438 70.253906 C 35.800781 68.765625 35.601562 64.234375 34.6875 63.253906 C 33.941406 62.441406 31.847656 62.273438 31.578125 62.984375 Z M 34.417969 66.972656 C 34.484375 69.339844 34.316406 69.847656 33.300781 70.050781 C 32.691406 70.152344 32.625 69.949219 32.523438 67.480469 C 32.386719 64.066406 32.523438 63.660156 33.570312 64.335938 C 34.179688 64.742188 34.316406 65.179688 34.417969 66.972656 Z M 34.417969 66.972656 "/>
<path style=" stroke:none;fill-rule:nonzero;fill:rgb(0%,0%,0%);fill-opacity:1;" d="M 36.75 62.78125 C 36.378906 63.152344 36.480469 71.671875 36.851562 71.671875 C 37.222656 71.671875 37.324219 70.726562 37.222656 68.292969 C 37.121094 66.230469 37.761719 67.175781 38.066406 69.578125 C 38.167969 70.558594 38.441406 71.4375 38.609375 71.539062 C 39.082031 71.839844 39.554688 70.996094 39.554688 69.8125 C 39.554688 69.238281 39.691406 68.425781 39.824219 67.953125 C 39.996094 67.3125 40.097656 67.617188 40.230469 69.238281 C 40.535156 73.023438 41.078125 71.605469 41.078125 67.007812 C 41.078125 62.949219 41.042969 62.714844 40.398438 62.714844 C 39.824219 62.714844 39.691406 63.050781 39.386719 64.980469 C 39.21875 66.195312 38.945312 67.3125 38.84375 67.445312 C 38.710938 67.546875 38.507812 66.90625 38.40625 66.027344 C 38 63.1875 37.832031 62.542969 37.390625 62.542969 C 37.15625 62.542969 36.851562 62.644531 36.75 62.78125 Z M 36.75 62.78125 "/>
<path style=" stroke:none;fill-rule:nonzero;fill:rgb(0%,0%,0%);fill-opacity:1;" d="M 42.496094 62.78125 C 42.359375 62.882812 42.261719 64.945312 42.261719 67.34375 C 42.261719 70.691406 42.359375 71.707031 42.699219 71.605469 C 42.9375 71.503906 43.140625 70.691406 43.207031 69.542969 C 43.339844 67.175781 43.984375 67.242188 44.796875 69.679688 C 45.335938 71.300781 45.84375 71.941406 46.214844 71.539062 C 46.351562 71.4375 46.179688 70.523438 45.878906 69.507812 C 45.335938 67.851562 45.335938 67.648438 45.84375 66.636719 C 46.417969 65.484375 46.316406 63.863281 45.605469 62.984375 C 45.199219 62.542969 42.902344 62.375 42.496094 62.78125 Z M 44.964844 64.539062 C 45.371094 65.316406 45.132812 66.128906 44.390625 66.398438 C 43.613281 66.703125 43.273438 66.332031 43.273438 65.046875 C 43.273438 64.132812 43.410156 63.898438 43.949219 63.898438 C 44.289062 63.898438 44.761719 64.199219 44.964844 64.539062 Z M 44.964844 64.539062 "/>
<path style=" stroke:none;fill-rule:nonzero;fill:rgb(0%,0%,0%);fill-opacity:1;" d="M 47.839844 63.320312 C 46.621094 65.179688 46.621094 69 47.804688 70.828125 C 48.820312 72.382812 50.746094 71.671875 51.117188 69.578125 C 51.386719 68.019531 50.8125 67.71875 50.238281 69.070312 C 49.257812 71.4375 48.007812 70.320312 48.007812 67.109375 C 48.007812 65.011719 48.445312 63.898438 49.222656 63.898438 C 49.527344 63.898438 49.933594 64.371094 50.136719 64.910156 C 50.609375 66.160156 51.253906 66.027344 51.117188 64.707031 C 50.878906 62.644531 48.851562 61.800781 47.839844 63.320312 Z M 47.839844 63.320312 "/>
</g>
</svg>
